HIERARCHY
ROOT Hips
{
	OFFSET 0.000000 88.474243 0.000000
	CHANNELS 6 Xposition Yposition Zposition Zrotation Yrotation Xrotation 
	JOINT Hips_Spine
	{
		OFFSET 0.000000 0.000000 0.000000
		CHANNELS 3 Zrotation Yrotation Xrotation
		JOINT Spine
		{
			OFFSET 0.005100 8.711998 -0.691000
			CHANNELS 3 Zrotation Yrotation Xrotation
			JOINT Spine1
			{
				OFFSET -0.009200 8.660301 -1.275000
				CHANNELS 3 Zrotation Yrotation Xrotation
				JOINT Spine2
				{
					OFFSET 0.006300 9.852501 -1.857000
					CHANNELS 3 Zrotation Yrotation Xrotation
					JOINT Spine2_Neck
					{
						OFFSET 0.000000 0.000000 0.000000
						CHANNELS 3 Zrotation Yrotation Xrotation
						JOINT Neck
						{
							OFFSET 0.016300 11.420799 -0.263300
							CHANNELS 3 Zrotation Yrotation Xrotation
							End Site #name: Head
							{
								OFFSET -0.019200 9.262405 2.362500
							}
						}
					}
					JOINT Spine2_LeftShoulder
					{
						OFFSET 0.000000 0.000000 0.000000
						CHANNELS 3 Zrotation Yrotation Xrotation
						JOINT LeftShoulder
						{
							OFFSET 5.616900 6.732201 -0.345700
							CHANNELS 3 Zrotation Yrotation Xrotation
							JOINT LeftArm
							{
								OFFSET 10.664888 -0.183372 -2.440700
								CHANNELS 3 Zrotation Yrotation Xrotation
								JOINT LeftForeArm
								{
									OFFSET 27.459126 0.000000 0.000000
									CHANNELS 3 Zrotation Yrotation Xrotation
									End Site #name: LeftHand
									{
										OFFSET 21.306858 0.000000 0.000000
									}
								}
							}
						}
					}
					JOINT Spine2_RightShoulder
					{
						OFFSET 0.000000 0.000000 0.000000
						CHANNELS 3 Zrotation Yrotation Xrotation
						JOINT RightShoulder
						{
							OFFSET -5.580300 6.737503 -0.344400
							CHANNELS 3 Zrotation Yrotation Xrotation
							JOINT RightArm
							{
								OFFSET -10.679335 -0.188484 -2.383900
								CHANNELS 3 Zrotation Yrotation Xrotation
								JOINT RightForeArm
								{
									OFFSET -27.503529 0.000000 0.000000
									CHANNELS 3 Zrotation Yrotation Xrotation
									End Site #name: RightHand
									{
										OFFSET -21.306808 0.000000 0.000000
									}
								}
							}
						}
					}
				}
			}
		}
	}
	JOINT Hips_LeftUpLeg
	{
		OFFSET 0.000000 0.000000 0.000000
		CHANNELS 3 Zrotation Yrotation Xrotation
		JOINT LeftUpLeg
		{
			OFFSET 6.857700 -6.739601 0.312100
			CHANNELS 3 Zrotation Yrotation Xrotation
			JOINT LeftLeg
			{
				OFFSET -0.367590 -34.731552 -4.572400
				CHANNELS 3 Zrotation Yrotation Xrotation
				End Site #name: LeftFoot
				{
					OFFSET 0.367590 -34.656704 -6.067400
				}
			}
		}
	}
	JOINT Hips_RightUpLeg
	{
		OFFSET 0.000000 0.000000 0.000000
		CHANNELS 3 Zrotation Yrotation Xrotation
		JOINT RightUpLeg
		{
			OFFSET -6.876100 -6.733299 0.301000
			CHANNELS 3 Zrotation Yrotation Xrotation
			JOINT RightLeg
			{
				OFFSET 0.347353 -34.795158 -4.515900
				CHANNELS 3 Zrotation Yrotation Xrotation
				End Site #name: RightFoot
				{
					OFFSET -0.347353 -34.589367 -6.070300
				}
			}
		}
	}
}
MOTION
Frames: 13
Frame Time: 0.041667
0.675460 -1.637015 -2.584515 -8.483453 23.922884 -1.545465 0.000000 -0.000000 -0.000000 5.721082 -2.517101 0.965110 3.248309 -0.575016 3.564072 0.000000 0.000000 0.000000 3.501302 -0.771240 4.372702 -2.900960 -10.932271 -3.926076 1.965803 -0.752669 2.240869 -10.944316 4.856721 -4.770619 -83.456695 -14.443579 -12.822632 -2.217179 12.712064 0.444792 3.094372 -1.418909 4.064003 16.909577 13.832253 7.088383 41.969484 31.500855 -26.376312 179.255084 41.438508 -175.430118 0.000000 0.000000 -0.000000 4.007075 17.263587 -18.095301 -3.434843 -17.780634 4.743680 0.000000 0.000000 0.000000 3.917447 -13.625064 -4.278730 4.317547 3.224731 6.400783 
0.680373 -1.673661 -2.656277 -8.423823 23.909675 -1.529685 0.000000 -0.000000 -0.000000 5.756077 -2.531651 0.944908 3.267558 -0.576141 3.566992 0.000000 0.000000 0.000000 3.521348 -0.775706 4.370205 -2.874705 -11.023153 -3.882616 1.977056 -0.751914 2.239009 -10.984143 4.945048 -4.821567 -83.506445 -14.486602 -12.824680 -2.222702 12.681961 0.435932 3.113845 -1.419069 4.083029 16.997669 13.718034 7.038102 41.907471 31.518348 -26.474442 179.256386 41.550985 -175.420001 0.000000 0.000000 -0.000000 4.029271 17.187761 -18.043396 -3.452150 -17.883515 4.657479 0.000000 0.000000 0.000000 3.958993 -13.774711 -4.300419 4.296359 3.202591 6.474931 
0.686487 -1.709216 -2.727463 -8.361707 23.882125 -1.499601 0.000000 -0.000000 -0.000000 5.778752 -2.554821 0.923485 3.280117 -0.575773 3.563222 0.000000 0.000000 0.000000 3.538316 -0.777818 4.366784 -2.856543 -11.056021 -3.864268 1.985982 -0.748577 2.234573 -11.020614 5.021001 -4.862854 -83.564781 -14.514207 -12.829199 -2.226584 12.669813 0.430289 3.128718 -1.415170 4.098127 17.106244 13.618082 7.003676 41.892403 31.508173 -26.485171 179.261109 41.711204 -175.410090 0.000000 0.000000 -0.000000 4.045355 17.111111 -18.006811 -3.466347 -17.963880 4.578050 0.000000 0.000000 0.000000 3.995892 -13.919814 -4.334003 4.276067 3.180135 6.553843 
0.694431 -1.743758 -2.798528 -8.299858 23.855411 -1.463937 0.000000 -0.000000 -0.000000 5.784149 -2.591042 0.918343 3.288165 -0.574486 3.553699 0.000000 0.000000 0.000000 3.550309 -0.777160 4.360372 -2.848468 -11.031586 -3.871054 1.992992 -0.740701 2.226373 -11.060586 5.091272 -4.900466 -83.609657 -14.544203 -12.831547 -2.229673 12.652879 0.427399 3.139353 -1.408193 4.109741 17.227052 13.535685 6.983046 41.910214 31.468716 -26.423629 179.272616 41.902762 -175.392684 0.000000 0.000000 -0.000000 4.058719 17.036106 -17.983093 -3.478483 -18.020407 4.508310 0.000000 0.000000 0.000000 4.029511 -14.063802 -4.370699 4.254404 3.156092 6.625760 
0.704592 -1.777587 -2.869796 -8.238286 23.821856 -1.422721 0.000000 -0.000000 -0.000000 5.774751 -2.617253 0.923826 3.290818 -0.571648 3.538465 0.000000 0.000000 0.000000 3.558361 -0.773685 4.349848 -2.854670 -10.939640 -3.903520 1.997755 -0.731109 2.217224 -11.111170 5.163443 -4.938898 -83.652291 -14.551312 -12.856242 -2.234414 12.663468 0.420073 3.146370 -1.398954 4.115802 17.353710 13.481042 6.971113 41.952101 31.403646 -26.310012 179.283769 42.113283 -175.377869 0.000000 0.000000 -0.000000 4.068254 16.967754 -17.967901 -3.488449 -18.061185 4.448178 0.000000 -0.000000 0.000000 4.065496 -14.193098 -4.407816 4.225369 3.125834 6.685150 
0.717795 -1.810832 -2.941649 -8.177474 23.766645 -1.376059 0.000000 -0.000000 -0.000000 5.744385 -2.650097 0.930787 3.292585 -0.567271 3.518446 0.000000 0.000000 0.000000 3.566417 -0.768088 4.339603 -2.871510 -10.791859 -3.958111 2.002529 -0.716201 2.206811 -11.168615 5.241653 -4.979120 -83.694048 -14.565447 -12.887716 -2.238070 12.698072 0.414053 3.151274 -1.385366 4.118695 17.492643 13.425435 6.965406 42.004038 31.325584 -26.144837 179.298654 42.310624 -175.359920 0.000000 0.000000 -0.000000 4.076123 16.908712 -17.962919 -3.493029 -18.059867 4.406284 0.000000 -0.000000 0.000000 4.097562 -14.322613 -4.450221 4.196389 3.095941 6.748019 
0.734788 -1.843554 -3.014425 -8.119715 23.715604 -1.332693 0.000000 -0.000000 -0.000000 5.695520 -2.693705 0.943509 3.293762 -0.561124 3.497800 0.000000 0.000000 0.000000 3.573391 -0.761238 4.326776 -2.897209 -10.585627 -4.035866 2.007954 -0.698592 2.194404 -11.233261 5.306227 -5.018877 -83.732890 -14.542640 -12.947161 -2.243564 12.743989 0.406286 3.157419 -1.370949 4.120561 17.628669 13.380808 6.963563 42.075287 31.242030 -25.946974 179.314931 42.494529 -175.339972 0.000000 0.000000 -0.000000 4.079600 16.859827 -17.965528 -3.495088 -18.053942 4.374255 0.000000 -0.000000 0.000000 4.125310 -14.450891 -4.498730 4.166113 3.065118 6.811242 
0.756143 -1.875810 -3.088430 -8.063372 23.655946 -1.287636 0.000000 -0.000000 -0.000000 5.634257 -2.730314 0.962445 3.299969 -0.554447 3.473417 0.000000 0.000000 0.000000 3.582889 -0.754293 4.313964 -2.929304 -10.330238 -4.126087 2.014979 -0.677969 2.179598 -11.284211 5.346865 -5.058914 -83.794226 -14.511282 -13.042406 -2.248155 12.819517 0.399991 3.164539 -1.353083 4.120122 17.758458 13.343396 6.956686 42.145894 31.164697 -25.730004 179.331716 42.643133 -175.319114 0.000000 0.000000 -0.000000 4.081135 16.819692 -17.979728 -3.499287 -18.032033 4.364259 0.000000 -0.000000 0.000000 4.149705 -14.580739 -4.541774 4.134544 3.035238 6.864019 
0.782582 -1.907551 -3.164030 -8.009405 23.592001 -1.245755 0.000000 -0.000000 -0.000000 5.550582 -2.780823 0.988484 3.301578 -0.547852 3.449544 0.000000 0.000000 0.000000 3.591401 -0.747833 4.302090 -2.969514 -10.012513 -4.239732 2.022279 -0.657376 2.166223 -11.336179 5.363316 -5.088110 -83.865775 -14.470961 -13.154971 -2.252981 12.928533 0.391753 3.171943 -1.337104 4.119142 17.874640 13.317360 6.945519 42.236524 31.077734 -25.504600 179.346276 42.737660 -175.301730 0.000000 0.000000 -0.000000 4.077685 16.787554 -17.997194 -3.499381 -18.001636 4.353976 0.000000 -0.000000 0.000000 4.170490 -14.712192 -4.589022 4.099811 3.003329 6.920548 
0.814187 -1.938753 -3.241062 -7.955986 23.533693 -1.205632 0.000000 -0.000000 -0.000000 5.449579 -2.831161 1.019351 3.296429 -0.541448 3.423923 0.000000 0.000000 0.000000 3.600804 -0.743632 4.288379 -3.020329 -9.648104 -4.375193 2.029489 -0.639262 2.150470 -11.378614 5.355076 -5.112316 -83.921645 -14.419818 -13.286344 -2.257378 13.064059 0.386166 3.179062 -1.323613 4.114405 17.981175 13.306486 6.925872 42.313542 31.008039 -25.295183 179.360732 42.758806 -175.283813 0.000000 0.000000 -0.000000 4.068690 16.758499 -18.028513 -3.503393 -17.959682 4.367269 0.000000 -0.000000 0.000000 4.187297 -14.828739 -4.637506 4.060156 2.971637 6.976339 
0.850960 -1.969417 -3.319381 -7.902431 23.475744 -1.165040 0.000000 -0.000000 -0.000000 5.332468 -2.890830 1.050842 3.287506 -0.536756 3.394924 0.000000 0.000000 0.000000 3.608569 -0.740552 4.275320 -3.076312 -9.234333 -4.529151 2.034786 -0.624200 2.130371 -11.415989 5.318894 -5.132054 -83.986573 -14.343897 -13.446241 -2.261182 13.208305 0.376857 3.182101 -1.312665 4.105924 18.074917 13.322496 6.905982 42.398336 30.956307 -25.086718 179.373058 42.689482 -175.266787 0.000000 0.000000 -0.000000 4.052948 16.730917 -18.060433 -3.506083 -17.907473 4.374404 0.000000 -0.000000 0.000000 4.199315 -14.925219 -4.679087 4.013402 2.928527 7.013765 
0.892920 -1.999720 -3.398837 -7.846978 23.449302 -1.124564 0.000000 -0.000000 -0.000000 5.200982 -2.949437 1.086943 3.277745 -0.536255 3.365072 0.000000 0.000000 0.000000 3.614290 -0.738453 4.262404 -3.132616 -8.793917 -4.690684 2.038443 -0.611870 2.109624 -11.440059 5.265480 -5.155120 -84.057031 -14.263190 -13.620073 -2.263102 13.388205 0.372136 3.182774 -1.305042 4.093837 18.161851 13.358308 6.879623 42.483639 30.897485 -24.897229 179.382042 42.560811 -175.252646 0.000000 0.000000 -0.000000 4.029604 16.703239 -18.106135 -3.510834 -17.844024 4.397119 0.000000 -0.000000 0.000000 4.210005 -14.990061 -4.719418 3.960102 2.877162 7.046469 
0.940003 -2.029595 -3.479130 -7.789372 23.435262 -1.083731 0.000000 -0.000000 -0.000000 5.068436 -3.013499 1.122014 3.265472 -0.537132 3.332353 0.000000 0.000000 0.000000 3.618804 -0.737339 4.247856 -3.142635 -8.353100 -4.866279 2.040560 -0.602226 2.089163 -11.461971 5.203708 -5.176939 -84.137697 -14.190771 -13.819302 -2.265915 13.600079 0.367128 3.182599 -1.300855 4.076759 18.234741 13.444550 6.853067 42.570344 30.841721 -24.713464 179.391111 42.375635 -175.237661 0.000000 0.000000 -0.000000 3.998995 16.676252 -18.159029 -3.516740 -17.777258 4.418336 0.000000 -0.000000 0.000000 4.216191 -15.050834 -4.759044 3.896198 2.817782 7.073096 
